HIERARCHY
ROOT SpineBase
{
  OFFSET 0.000000 0.000000 0.000000
  CHANNELS 6 Xposition Yposition Zposition Zrotation Xrotation Yrotation
  JOINT SpineMid
  {
    OFFSET 0.000000 31.332460 0.000000
    CHANNELS 3 Zrotation Xrotation Yrotation
    JOINT SpineShoulder
    {
      OFFSET -0.001840 23.237824 -0.776500
      CHANNELS 3 Zrotation Xrotation Yrotation
      JOINT Neck
      {
        OFFSET -0.017200 7.678305 -0.581140
        CHANNELS 3 Zrotation Xrotation Yrotation
        JOINT Head
        {
          OFFSET -2.432277 13.095019 -0.542387
          CHANNELS 3 Zrotation Xrotation Yrotation
          End Site
          {
            OFFSET 0 0 0
          }
        }
      }
      JOINT ShoulderLeft
      {
        OFFSET -18.310277 -3.984518 4.714669
        CHANNELS 3 Zrotation Xrotation Yrotation
        JOINT ElbowLeft
        {
          OFFSET -2.297292 -25.221913 0.287943
          CHANNELS 3 Zrotation Xrotation Yrotation
          JOINT WristLeft
          {
            OFFSET 2.786060 -21.541592 -8.119873
            CHANNELS 3 Zrotation Xrotation Yrotation
            JOINT HandLeft
            {
              OFFSET 2.418130 -5.186611 -1.541346
              CHANNELS 3 Zrotation Xrotation Yrotation
              JOINT HandTipLeft
              {
                OFFSET 1.265973 -5.478695 -2.907291
                CHANNELS 3 Zrotation Xrotation Yrotation
                End Site
                {
                  OFFSET 0 0 0
                }
              }
              JOINT ThumbLeft
              {
                OFFSET 2.937650 1.642178 -1.334961
                CHANNELS 3 Zrotation Xrotation Yrotation
                End Site
                {
                  OFFSET 0 0 0
                }
              }
            }
          }
        }
      }
      JOINT ShoulderRight
      {
        OFFSET 17.130225 -1.839853 -4.201269
        CHANNELS 3 Zrotation Xrotation Yrotation
        JOINT ElbowRight
        {
          OFFSET 6.223239 -24.497973 0.390664
          CHANNELS 3 Zrotation Xrotation Yrotation
          JOINT WristRight
          {
            OFFSET -2.543701 -18.263070 -6.469442
            CHANNELS 3 Zrotation Xrotation Yrotation
            JOINT HandRight
            {
              OFFSET -2.538674 -6.242808 -1.375859
              CHANNELS 3 Zrotation Xrotation Yrotation
              JOINT HandTipRight
              {
                OFFSET -1.622759 -7.025874 -3.364816
                CHANNELS 3 Zrotation Xrotation Yrotation
                End Site
                {
                  OFFSET 0 0 0
                }
              }
              JOINT ThumbRight
              {
                OFFSET -3.150251 3.176287 0.159356
                CHANNELS 3 Zrotation Xrotation Yrotation
                End Site
                {
                  OFFSET 0 0 0
                }
              }
            }
          }
        }
      }
    }
  }
  JOINT HipLeft
  {
    OFFSET -7.498711 0.449382 -1.618426
    CHANNELS 3 Zrotation Xrotation Yrotation
    JOINT KneeLeft
    {
      OFFSET 0.441380 -32.552435 3.794599
      CHANNELS 3 Zrotation Xrotation Yrotation
      JOINT AnkleLeft
      {
        OFFSET 2.844675 -32.940605 8.686620
        CHANNELS 3 Zrotation Xrotation Yrotation
        JOINT FootLeft
        {
          OFFSET -2.243804 -3.135477 -13.169476
          CHANNELS 3 Zrotation Xrotation Yrotation
          End Site
          {
            OFFSET 0 0 0
          }
        }
      }
    }
  }
  JOINT HipRight
  {
    OFFSET 7.030336 1.474228 -5.226696
    CHANNELS 3 Zrotation Xrotation Yrotation
    JOINT KneeRight
    {
      OFFSET 7.169357 -30.564049 0.928976
      CHANNELS 3 Zrotation Xrotation Yrotation
      JOINT AnkleRight
      {
        OFFSET 4.895145 -33.277019 12.469043
        CHANNELS 3 Zrotation Xrotation Yrotation
        JOINT FootRight
        {
          OFFSET -2.486373 -3.155908 -13.156610
          CHANNELS 3 Zrotation Xrotation Yrotation
          End Site
          {
            OFFSET 0 0 0
          }
        }
      }
    }
  }
}
MOTION
Frames: 6
Frame Time: 0.033333
20.666413 72.749285 290.702175 -0.000000 0.000000 13.947161 -0.000000 0.000000 -13.947161 -0.000000 0.000000 0.000000 -0.000000 0.000000 0.000000 0.000000 0.000000 0.000000 -0.000000 0.000000 0.000000 -0.000000 0.000000 0.000000 -0.000000 0.000000 0.000000 -0.000000 0.000000 0.000000 0.000000 0.000000 0.000000 0.000000 0.000000 0.000000 -0.000000 0.000000 0.000000 -0.000000 0.000000 0.000000 -0.000000 0.000000 0.000000 -0.000000 0.000000 0.000000 0.000000 0.000000 0.000000 0.000000 0.000000 0.000000 -0.000000 0.000000 -13.947161 -0.000000 0.000000 0.000000 -0.000000 0.000000 0.000000 0.000000 0.000000 0.000000 -0.000000 0.000000 -13.947161 -0.000000 0.000000 0.000000 -0.000000 0.000000 0.000000 0.000000 0.000000 0.000000
20.900835 72.782539 290.683158 0.017660 -0.026868 13.896289 -0.010691 0.030324 -13.896282 -0.000000 0.000000 0.000000 -1.025944 0.220778 0.000490 0.000000 0.000000 0.000000 -0.000000 0.000000 0.000000 -0.000000 0.000000 0.000000 -0.000000 0.000000 0.000000 1.873042 -2.127720 -1.459745 0.000000 0.000000 0.000000 0.000000 0.000000 0.000000 -0.000000 0.000000 0.000000 -0.000000 0.000000 0.000000 -0.000000 0.000000 0.000000 0.235120 -2.485020 0.471669 0.000000 0.000000 0.000000 0.000000 0.000000 0.000000 -0.010691 0.030324 -13.896282 -0.000000 0.000000 0.000000 -0.000000 0.000000 0.000000 0.000000 0.000000 0.000000 -0.010691 0.030324 -13.896282 -0.000000 0.000000 0.000000 -0.000000 0.000000 0.000000 0.000000 0.000000 0.000000
21.118398 72.814118 290.658951 0.026362 -0.048279 13.860819 -0.014029 0.053189 -13.860802 -0.000000 0.000000 0.000000 -1.895470 0.424510 0.007379 0.000000 0.000000 0.000000 -0.000000 0.000000 0.000000 -0.593287 -1.394252 0.036274 -0.332292 1.627094 0.358732 4.180401 -4.023465 -2.899688 0.000000 0.000000 0.000000 0.000000 0.000000 0.000000 -0.000000 0.000000 0.000000 -0.000000 0.000000 0.000000 -0.434900 0.982464 -0.298930 0.933464 -5.406731 1.149070 0.000000 0.000000 0.000000 0.000000 0.000000 0.000000 -0.014029 0.053189 -13.860802 -0.000000 0.000000 0.000000 -0.000000 0.000000 0.000000 0.000000 0.000000 0.000000 -0.014029 0.053189 -13.860802 -0.000000 0.000000 0.000000 -0.000000 0.000000 0.000000 0.000000 0.000000 0.000000
21.319102 72.844020 290.629555 0.026095 -0.064222 13.840752 -0.009974 0.068600 -13.840731 -0.000000 0.000000 0.000000 -2.609431 0.611212 0.019436 0.000000 0.000000 0.000000 -0.000000 0.000000 0.000000 -0.865562 -1.972494 0.056657 -0.385106 2.502542 0.584036 5.503133 -5.540125 -3.866671 0.000000 0.000000 0.000000 0.000000 0.000000 0.000000 -0.000000 0.000000 0.000000 -0.000000 0.000000 0.000000 -0.663810 1.285872 -0.367405 1.401602 -7.094999 1.478630 0.000000 0.000000 0.000000 0.000000 0.000000 0.000000 -0.009974 0.068600 -13.840731 -0.985132 0.007918 -0.259236 0.985158 -0.003460 0.259334 0.000000 0.000000 0.000000 -0.009974 0.068600 -13.840731 -0.000000 0.000000 0.000000 -0.000000 0.000000 0.000000 0.000000 0.000000 0.000000
21.502948 72.872246 290.594969 0.016851 -0.074691 13.836092 0.001500 0.076553 -13.836082 -0.000000 0.000000 0.000000 -3.168847 0.781009 0.035579 0.000000 0.000000 0.000000 -0.000000 0.000000 0.000000 -1.120351 -2.468156 0.079664 -0.374425 3.409641 0.836311 6.414594 -6.768880 -4.588708 0.000000 0.000000 0.000000 0.000000 0.000000 0.000000 -0.000000 0.000000 0.000000 -0.000000 0.000000 0.000000 -0.915276 1.500902 -0.394253 1.862733 -8.137474 1.646449 0.000000 0.000000 0.000000 0.000000 0.000000 0.000000 0.001500 0.076553 -13.836082 -1.233238 -0.004202 -0.325931 1.233194 0.011216 0.325765 0.000000 0.000000 0.000000 0.001500 0.076553 -13.836082 -0.000000 0.000000 0.000000 -0.000000 0.000000 0.000000 0.000000 0.000000 0.000000
21.669935 72.898796 290.555193 -0.001372 -0.079679 13.846848 0.020402 0.077035 -13.846863 -0.000000 0.000000 0.000000 -3.574748 0.934094 0.054878 0.000000 0.000000 0.000000 -0.000000 0.000000 0.000000 -1.356854 -2.879353 0.106063 -0.307199 4.344158 1.113834 6.959171 -7.728804 -5.101574 0.000000 0.000000 0.000000 0.000000 0.000000 0.000000 -0.000000 0.000000 0.000000 -0.000000 0.000000 0.000000 -1.201559 1.640531 -0.382313 2.320452 -8.552956 1.650769 0.000000 0.000000 0.000000 0.000000 0.000000 0.000000 0.020402 0.077035 -13.846863 -1.444584 -0.023880 -0.383724 1.444392 0.033546 0.383000 0.000000 0.000000 0.000000 0.020402 0.077035 -13.846863 -0.741929 -0.187629 -0.306927 0.740918 0.191585 0.304473 0.000000 0.000000 0.000000
